<svg xmlns="http://www.w3.org/2000/svg" viewBox="0 0 720 360" width="720" height="360" font-family="'Apple SD Gothic Neo', 'Noto Sans KR', sans-serif">
  <rect x="1" y="1" width="718" height="358" rx="10" fill="#f7f8fa" stroke="#e5e7eb"/>
  <text x="360" y="36" text-anchor="middle" font-size="19" font-weight="700" fill="#1a1d24">국내 ETF 순자산총액 — 6년 새 약 10배</text>

  <!-- baseline -->
  <line x1="50" y1="300" x2="670" y2="300" stroke="#e5e7eb"/>

  <!-- 2020: 52 -->
  <rect x="71" y="279" width="46" height="21" rx="3" fill="#0f4bd8" fill-opacity="0.32"/>
  <text x="94" y="272" text-anchor="middle" font-size="12" font-weight="700" fill="#1a1d24">52</text>
  <text x="94" y="318" text-anchor="middle" font-size="11" fill="#6b7280">’20</text>

  <!-- 2021: 74 -->
  <rect x="160" y="271" width="46" height="29" rx="3" fill="#0f4bd8" fill-opacity="0.32"/>
  <text x="183" y="264" text-anchor="middle" font-size="12" font-weight="700" fill="#1a1d24">74</text>
  <text x="183" y="318" text-anchor="middle" font-size="11" fill="#6b7280">’21</text>

  <!-- 2022: 79 -->
  <rect x="248" y="269" width="46" height="31" rx="3" fill="#0f4bd8" fill-opacity="0.32"/>
  <text x="271" y="262" text-anchor="middle" font-size="12" font-weight="700" fill="#1a1d24">79</text>
  <text x="271" y="318" text-anchor="middle" font-size="11" fill="#6b7280">’22</text>

  <!-- 2023: 121 -->
  <rect x="337" y="252" width="46" height="48" rx="3" fill="#0f4bd8" fill-opacity="0.32"/>
  <text x="360" y="245" text-anchor="middle" font-size="12" font-weight="700" fill="#1a1d24">121</text>
  <text x="360" y="318" text-anchor="middle" font-size="11" fill="#6b7280">’23</text>

  <!-- 2024: 174 -->
  <rect x="425" y="231" width="46" height="69" rx="3" fill="#0f4bd8" fill-opacity="0.32"/>
  <text x="448" y="224" text-anchor="middle" font-size="12" font-weight="700" fill="#1a1d24">174</text>
  <text x="448" y="318" text-anchor="middle" font-size="11" fill="#6b7280">’24</text>

  <!-- 2025: 297 -->
  <rect x="514" y="183" width="46" height="117" rx="3" fill="#0f4bd8" fill-opacity="0.32"/>
  <text x="537" y="176" text-anchor="middle" font-size="12" font-weight="700" fill="#1a1d24">297</text>
  <text x="537" y="318" text-anchor="middle" font-size="11" fill="#6b7280">’25</text>

  <!-- 2026.5: 507 -->
  <rect x="602" y="100" width="46" height="200" rx="3" fill="#0f4bd8"/>
  <text x="625" y="93" text-anchor="middle" font-size="12" font-weight="700" fill="#0f4bd8">507</text>
  <text x="625" y="318" text-anchor="middle" font-size="11" font-weight="700" fill="#0f4bd8">’26.5</text>

  <text x="360" y="346" text-anchor="middle" font-size="11" fill="#6b7280">단위: 조 원 · 연말 기준(2026년은 5월 말) · 출처: 한국거래소·금융투자협회</text>
</svg>
